<?xml version="1.0" standalone="no"?>
<!DOCTYPE svg PUBLIC "-//W3C//DTD SVG 20010904//EN"
 "http://www.w3.org/TR/2001/REC-SVG-20010904/DTD/svg10.dtd">
<svg version="1.0" xmlns="http://www.w3.org/2000/svg"
 width="225.000000pt" height="225.000000pt" viewBox="0 0 225.000000 225.000000"
 preserveAspectRatio="xMidYMid meet">
<metadata>
Created by potrace 1.14, written by Peter Selinger 2001-2017
</metadata>
<g transform="translate(0.000000,225.000000) scale(0.100000,-0.100000)"
fill="#000000" stroke="none">
<path d="M1060 2203 c-389 -27 -727 -249 -900 -593 -67 -135 -96 -237 -109
-390 -24 -269 51 -531 214 -747 105 -140 279 -275 442 -343 153 -64 209 -74
418 -74 215 0 274 12 436 83 124 55 220 121 324 226 105 104 171 200 226 324
71 162 83 221 83 436 0 163 -3 201 -22 267 -100 364 -358 640 -708 757 -120
40 -286 63 -404 54z m359 -487 c69 -36 132 -101 162 -169 23 -54 26 -55 76
-66 116 -23 217 -101 270 -209 25 -51 28 -68 28 -157 0 -88 -3 -107 -27 -157
-34 -74 -112 -152 -186 -186 l-57 -27 -593 -3 c-563 -3 -595 -2 -635 16 -107
47 -167 140 -167 257 0 151 102 260 256 273 l62 5 6 36 c9 57 58 126 113 158
41 24 60 28 127 30 l79 2 28 49 c36 64 117 136 182 162 77 30 202 24 276 -14z"/>
</g>
</svg>
